<?xml version="1.0" encoding="UTF-8"?>
<svg id="Livello_1" data-name="Livello 1" xmlns="http://www.w3.org/2000/svg" viewBox="0 0 580 450">
  <g>
    <path d="M66.66963,237.20443v68.25594c0,6.10636-1.92516,11.20944-5.77149,15.30659-1.92516,2.00788-4.20388,3.59818-6.8388,4.76822-2.63493,1.17004-5.70879,1.75706-9.22158,1.75706-4.09981,0-7.50854-.89788-10.22618-2.69763-2.71898-1.79842-4.87095-3.57683-6.46124-5.33256l10.03807-8.03019c.91922,.92189,1.9852,1.69302,3.19927,2.3214,1.2114,.62705,2.48817,.94057,3.82631,.94057,.75245,0,1.63165-.14542,2.63493-.43893,1.00327-.29218,1.96519-.85652,2.88574-1.69436,.91922-.75245,1.67301-1.81843,2.2587-3.19927,.58435-1.3795,.87786-3.19927,.87786-5.45797v-66.49887h12.7984Z" fill="#fff"/>
    <path d="M127.6465,237.20443v69.25921c0,2.92844-.52298,5.62607-1.56761,8.09289-1.0473,2.46816-2.5322,4.66415-4.45469,6.58665-1.92516,1.92516-4.14117,3.43141-6.64935,4.5174-2.50952,1.08599-5.18847,1.63165-8.03019,1.63165-2.84572,0-5.50199-.54566-7.96748-1.63165-2.46816-1.08599-4.66415-2.59223-6.58798-4.5174-1.92516-1.9225-3.43007-4.11849-4.51606-6.58665-1.08866-2.46682-1.63165-5.16446-1.63165-8.09289v-69.25921h12.7984v68.00512c0,3.17926,.75245,5.52067,2.2587,7.02558,1.50491,1.50624,3.38738,2.2587,5.64608,2.2587,2.25736,0,4.13984-.75245,5.64608-2.2587,1.50491-1.50491,2.25736-3.84633,2.25736-7.02558v-68.00512h12.7984Z" fill="#fff"/>
    <path d="M188.62471,262.92531h-12.7984v-2.88574c0-2.9271-.68975-5.45797-2.06925-7.58992-1.38083-2.13329-3.70224-3.2006-6.96421-3.2006-1.75573,0-3.17926,.3362-4.26525,1.00461-1.08866,.66974-1.96652,1.50491-2.63493,2.50952-.67107,1.08732-1.13002,2.3214-1.38083,3.7009-.25082,1.38083-.37623,2.82304-.37623,4.32928,0,1.75573,.0627,3.22061,.18811,4.39065,.12541,1.17271,.43893,2.21734,.9419,3.13656,.50164,.92189,1.23275,1.7157,2.19466,2.38411,.96058,.67107,2.27871,1.33948,3.95306,2.00788l9.78592,3.88902c2.84305,1.08866,5.14444,2.36543,6.90151,3.82765,1.75573,1.46355,3.13656,3.15791,4.13984,5.08174,.91922,2.00655,1.5476,4.28659,1.88247,6.83747,.33353,2.55221,.50164,5.45797,.50164,8.71994,0,3.76494-.37623,7.25772-1.12868,10.477-.75379,3.22061-1.96652,5.9596-3.63953,8.2183-1.75573,2.34275-4.05712,4.18386-6.90017,5.52067-2.84439,1.33681-6.31715,2.00788-10.4143,2.00788-3.0952,0-5.98095-.54566-8.65723-1.63165-2.67762-1.08599-4.97768-2.59223-6.90017-4.5174-1.92516-1.9225-3.45142-4.15985-4.5801-6.71206-1.13002-2.55088-1.69436-5.33256-1.69436-8.34371v-4.76822h12.7984v4.01576c0,2.34275,.68975,4.45336,2.07059,6.33583,1.3795,1.88247,3.7009,2.82304,6.96288,2.82304,2.17465,0,3.86767-.31352,5.08174-.94057,1.2114-.62838,2.15197-1.52626,2.82304-2.69763,.6684-1.17137,1.06598-2.57222,1.19139-4.20388,.12541-1.63032,.18811-3.45009,.18811-5.45797,0-2.34008-.08405-4.26525-.25082-5.77149-.1681-1.50491-.50164-2.71764-1.00327-3.6382-.58569-.91922-1.36082-1.67301-2.3214-2.2587-.96191-.58435-2.23869-1.2114-3.82631-1.88247l-9.15887-3.76361c-5.52067-2.2587-9.22291-5.24851-11.10405-8.97076-1.88247-3.72092-2.82437-8.38507-2.82437-13.98979,0-3.34469,.45894-6.52528,1.38083-9.53643,.91922-3.01115,2.30006-5.60205,4.13984-7.77937,1.75706-2.17331,3.99442-3.90903,6.71339-5.20581,2.71764-1.29678,5.9596-1.94518,9.72321-1.94518,3.17792,0,6.08635,.58569,8.72127,1.75573,2.63493,1.17271,4.9123,2.72031,6.83747,4.64281,3.84633,4.01576,5.77149,8.61588,5.77149,13.80168v6.27313Z" fill="#fff"/>
    <path d="M214.09344,326.53844v-77.2894h-14.80495v-12.04462h42.40831v12.04462h-14.80495v77.2894h-12.7984Z" fill="#fff"/>
    <path d="M285.73275,326.53844v-89.33401h18.94612c7.35912,0,12.94249,2.00788,16.75013,6.02231,3.80497,4.01576,5.70879,9.70453,5.70879,17.06365v41.7826c0,8.36506-2.02923,14.53412-6.08501,18.50586-4.05845,3.9744-9.89265,5.9596-17.50258,5.9596h-17.81744Zm12.7984-77.2894v65.24478h5.8969c3.59551,0,6.14772-.89788,7.65396-2.69763,1.50491-1.79709,2.25736-4.62013,2.25736-8.46912v-43.03669c0-3.51279-.7111-6.2291-2.13196-8.15426-1.42353-1.92383-4.01576-2.88708-7.77937-2.88708h-5.8969Z" fill="#fff"/>
    <path d="M346.71096,326.53844v-89.33401h20.57778c15.05577,0,22.58432,8.74129,22.58432,26.22386,0,5.26985-.81649,9.74456-2.44681,13.42412-1.63165,3.68223-4.49739,6.65069-8.59453,8.90939l13.80168,40.77665h-13.55086l-11.91921-38.14173h-7.65396v38.14173h-12.7984Zm12.7984-77.2894v27.85551h7.2764c2.2587,0,4.05712-.31486,5.39526-.9419,1.33814-.62705,2.38411-1.52492,3.13656-2.69763,.66974-1.17004,1.13002-2.61358,1.38083-4.32795,.25082-1.71437,.37623-3.70224,.37623-5.9596,0-2.2587-.12541-4.24523-.37623-5.96094-.25082-1.71304-.75245-3.19927-1.50624-4.45336-1.58896-2.34142-4.60011-3.51412-9.03346-3.51412h-6.64935Z" fill="#fff"/>
    <path d="M408.06405,326.53844v-89.33401h12.7984v89.33401h-12.7984Z" fill="#fff"/>
    <path d="M440.31022,326.53844v-89.33401h12.29543l19.32235,53.82721h.25082v-53.82721h12.7984v89.33401h-12.04462l-19.57317-53.70047h-.25082v53.70047h-12.7984Z" fill="#fff"/>
    <path d="M504.04609,326.53844v-89.33401h12.7984v40.77799h.25082l18.6953-40.77799h12.79707l-17.43988,35.75895,20.70185,53.57506h-13.54953l-14.55547-39.64797-6.90017,12.92381v26.72416h-12.7984Z" fill="#fff"/>
  </g>
  <g>
    <path d="M141.07556,401.83863c-1.73038,1.03796-3.5915,1.18071-6.40654,.47762l-6.05966-1.51425,8.49047-33.97387,6.10769,1.52626c2.76701,.69108,4.3066,1.63299,5.28453,3.39805,1.04997,1.88514,1.03796,3.75827,.15609,7.28841-.59636,2.38678-1.40752,4.41467-3.55415,5.70345-.83517,.5003-1.71837,.78714-2.4815,.79915,.85919,.41759,1.50224,1.08466,2.00388,1.91983,1.38484,2.37344,.98993,4.963,.3829,7.39647-1.04997,4.19854-2.12262,5.85687-3.92371,6.97889Zm-2.22001-15.86559l-3.34069-.83517-3.45809,13.8377,3.34069,.83517c3.24463,.81116,5.42728-.2148,6.78544-5.65542,1.24075-4.96167-.08272-7.37112-3.32735-8.18228Zm3.76761-15.07845l-3.34069-.83517-3.14857,12.59828,3.34069,.83384c3.05385,.76313,5.21382-.57235,6.34517-5.10575,1.24075-4.963-.14275-6.72807-3.1966-7.4912Z" fill="#fff"/>
    <path d="M170.9523,410.33044l-.008-9.78058-8.00617-1.59563-3.70758,9.04147-3.0872-.61504,14.51277-32.81718,2.65227,.52832,.68308,35.84434-3.03917-.6057Zm-.06137-30.40372l-6.86548,16.58603,6.89884,1.37416-.03335-17.96019Z" fill="#fff"/>
    <path d="M200.65292,415.22673l-2.69496-16.2605-4.47471-.6684-2.3134,15.51471-2.86974-.42826,5.16579-34.62627,6.80812,1.01528c4.18253,.62304,7.26573,2.62425,6.061,10.69713-.79782,5.3499-2.59357,7.718-5.62207,8.35972l3.00448,16.85419-3.06452-.45761Zm-.66574-32.8612l-4.03711-.60303-2.08126,13.95777,4.03577,.60303c3.45275,.51498,4.89363-1.80643,5.5607-6.2798,.66707-4.47471-.02535-7.163-3.4781-7.67798Z" fill="#fff"/>
    <path d="M251.9506,419.07706c-1.24876,.94991-2.86306,1.4809-4.92298,1.34081-2.25736-.15343-3.9704-1.05797-5.06173-2.41479-2.0479-2.50551-2.10661-5.26985-1.3795-15.96699,.72711-10.69713,1.15937-13.42945,3.52747-15.63479,1.26476-1.19539,3.08453-1.85979,5.3419-1.7077,2.208,.15076,3.78095,.94724,4.87762,2.20533,1.41819,1.62498,1.94518,4.02643,1.81443,6.68004l-2.89508-.19612c.12007-1.76774-.10673-3.50745-1.06064-4.70685-.63638-.78314-1.5396-1.28745-2.91376-1.38083-1.42219-.09739-2.43747,.32686-3.17792,1.06598-1.5396,1.62098-1.9225,3.61552-2.61892,13.87105-.69642,10.25687-.58836,12.28476,.71777,14.09919,.63372,.8325,1.58229,1.38884,3.00448,1.48623,1.37416,.09339,2.33741-.28551,3.07386-.97392,1.10734-1.05931,1.56761-2.75366,1.68769-4.52007l2.89508,.19745c-.23881,2.79369-1.13802,5.14711-2.90976,6.55596Z" fill="#fff"/>
    <path d="M282.76657,421.45583l-1.71837-9.62849-8.16227-.16944-2.06792,9.54977-3.14724-.06537,8.54517-34.8504,2.70564,.05603,6.9442,35.17193-3.09921-.06404Zm-5.37925-29.92476l-3.85833,17.53193,7.03359,.14676-3.17525-17.67869Z" fill="#fff"/>
    <path d="M304.33428,388.90682l.65907,32.40626-2.90042,.0587-.6604-32.40626-5.85154,.11874-.05337-2.60558,14.60483-.29751,.05337,2.60558-5.85154,.12007Z" fill="#fff"/>
    <path d="M326.06742,420.51793l-2.22535-34.95313,12.17403-.77514,.16543,2.60157-9.27761,.59102,.86319,13.54953,8.00217-.50964,.16543,2.60157-8.00217,.50964,.86586,13.59889,9.27894-.59102,.16543,2.60157-12.17536,.77514Z" fill="#fff"/>
    <path d="M367.12824,416.92509l-6.77743-15.03176-4.49739,.50297,1.74239,15.59343-2.88441,.32286-3.88902-34.80638,6.84414-.76446c4.20388-.46962,7.69665,.67507,8.60387,8.78931,.60036,5.37792-.52699,8.12625-3.29132,9.52443l7.22837,15.52539-3.0792,.34421Zm-9.07482-31.60311l-4.05712,.45361,1.56761,14.02982,4.05712-.45361c3.47143-.38823,4.26791-3.00048,3.76494-7.49787-.50164-4.49739-1.86246-6.92018-5.33256-6.53195Z" fill="#fff"/>
    <path d="M386.43325,414.28883l-5.31388-34.61159,2.8684-.44027,5.31388,34.61159-2.8684,.44027Z" fill="#fff"/>
    <path d="M419.05697,408.50266l-14.87966-24.89105,5.27652,26.78286-2.84839,.56034-6.76809-34.35944,2.84705-.56034,14.87966,24.89105-5.32455-26.77352,2.84839-.56167,6.76809,34.36078-2.79903,.551Z" fill="#fff"/>
    <path d="M445.91988,402.7712c-2.19466,.54967-4.10515,.21613-5.55936-.73778-2.72165-1.75306-3.62886-4.36531-6.2331-14.7676-2.60424-10.40229-3.03383-13.13461-1.45955-15.96165,.83384-1.52759,2.36143-2.72165,4.55609-3.26998,2.19466-.54967,3.94772-.22814,5.38059,.62971,1.80109,1.12068,3.0792,3.18459,3.72358,5.76082l-2.81504,.70576c-.68175-2.72031-2.22134-5.42728-5.65675-4.5681-1.3835,.34688-2.21867,1.06331-2.69496,1.99321-.96592,2.01722-.7151,4.03311,1.78108,14.0058,2.49751,9.9727,3.22595,11.86851,5.02704,13.19331,.85919,.59503,1.93317,.83384,3.31667,.48696,2.43347-.60837,3.76895-2.97113,2.96846-6.16773l-2.0906-8.35038-4.24657,1.06198-.59636-2.38544,7.0616-1.76774,2.68829,10.73582c1.26476,5.05906-1.38217,8.45978-5.15111,9.40302Z" fill="#fff"/>
  </g>
  <g>
    <path d="M329.32928,34.16061l13.6169-13.91108-1.80776-1.7694-13.6089,13.90274c.64572,.545,1.24275,1.14269,1.79975,1.77774Z" fill="#fff"/>
    <path d="M326.46622,37.08572c-.54166-.64906-1.14936-1.23975-1.80843-1.76907-2.16931-1.74172-4.91964-2.78969-7.91812-2.78969-6.99356,0-12.66299,5.66976-12.66299,12.66332h25.32598c0-3.08386-1.10467-5.90824-2.93644-8.10457Z" fill="#fff"/>
    <g>
      <polygon points="227.77221 52.50404 230.4665 55.2567 230.4665 52.50404 227.77221 52.50404" fill="#fff"/>
      <polygon points="235.30043 52.50404 235.30043 60.19535 238.08178 63.03674 238.08178 52.50404 235.30043 52.50404" fill="#fff"/>
      <polygon points="242.9157 52.50404 242.9157 67.97539 245.69738 70.81678 245.69738 52.50404 242.9157 52.50404" fill="#fff"/>
      <polygon points="250.53097 52.50404 250.53097 75.75543 253.31265 78.59715 253.31265 52.50404 250.53097 52.50404" fill="#fff"/>
      <polygon points="258.14757 52.50404 258.14757 83.5368 260.92892 86.37852 260.92892 52.50404 258.14757 52.50404" fill="#fff"/>
      <polygon points="265.80854 184.34875 265.80854 188.72006 268.54419 188.72006 268.54419 184.00955 265.80854 184.34875" fill="#fff"/>
      <polygon points="268.54419 52.50404 265.76285 52.50404 265.76285 91.31684 268.54419 94.15856 268.54419 52.50404" fill="#fff"/>
      <polygon points="273.37812 183.41019 273.37812 188.72006 276.15946 188.72006 276.15946 183.06531 273.37812 183.41019" fill="#fff"/>
      <polygon points="276.15946 101.93859 276.15946 52.50404 273.37812 52.50404 273.37812 99.09721 276.15946 101.93859" fill="#fff"/>
      <polygon points="283.77507 109.71863 283.77507 52.50404 280.99339 52.50404 280.99339 106.87725 283.77507 109.71863" fill="#fff"/>
      <polygon points="280.99339 182.46595 280.99339 188.72006 283.77507 188.72006 283.77507 182.12107 280.99339 182.46595" fill="#fff"/>
      <polygon points="296.22526 182.12107 296.22526 188.72006 299.00628 188.72006 299.00628 182.46595 296.22526 182.12107" fill="#fff"/>
      <polygon points="299.00628 106.87725 299.00628 52.50404 296.22526 52.50404 296.22526 109.71863 299.00628 106.87725" fill="#fff"/>
      <polygon points="303.84054 183.06531 303.84054 188.72006 306.62222 188.72006 306.62222 183.41019 303.84054 183.06531" fill="#fff"/>
      <polygon points="306.62222 99.09721 306.62222 52.50404 303.84054 52.50404 303.84054 101.93859 306.62222 99.09721" fill="#fff"/>
      <polygon points="311.45714 52.50404 311.45714 94.15722 314.23816 91.31584 314.23816 52.50404 311.45714 52.50404" fill="#fff"/>
      <polygon points="314.19146 184.34875 311.45714 184.00988 311.45714 188.72006 314.19146 188.72006 314.19146 184.34875" fill="#fff"/>
      <polygon points="319.07241 52.50404 319.07241 86.37718 321.85343 83.53547 321.85343 52.50404 319.07241 52.50404" fill="#fff"/>
      <polygon points="326.68768 52.50404 326.68768 78.59715 329.4687 75.75543 329.4687 52.50404 326.68768 52.50404" fill="#fff"/>
      <polygon points="334.30295 52.50404 334.30295 70.81678 337.08397 67.97539 337.08397 52.50404 334.30295 52.50404" fill="#fff"/>
      <polygon points="341.91956 52.50404 341.91956 63.03541 344.70057 60.19402 344.70057 52.50404 341.91956 52.50404" fill="#fff"/>
      <polygon points="349.53483 52.50404 349.53483 55.25537 352.22779 52.50404 349.53483 52.50404" fill="#fff"/>
      <polygon points="288.60999 142.93238 288.60999 188.72006 291.39101 188.72006 291.39101 142.93238 290.00017 142.18326 288.60999 142.93238" fill="#fff"/>
      <polygon points="291.39101 115.19628 291.39101 52.50404 288.60999 52.50404 288.60999 115.19661 290.00017 115.9454 291.39101 115.19628" fill="#fff"/>
    </g>
    <polygon points="291.39101 126.05851 290.00017 126.80763 288.60999 126.05884 258.22229 109.69095 258.22229 148.43804 288.60999 132.07015 290.00017 131.32136 291.39101 132.07048 321.77805 148.43804 321.77805 109.69095 291.39101 126.05851" fill="#fff"/>
  </g>
</svg>