<?xml version="1.0" encoding="UTF-8"?>
<svg id="Livello_1" data-name="Livello 1" xmlns="http://www.w3.org/2000/svg" viewBox="0 0 580 270">
  <g>
    <g>
      <path d="M51.8082,74.69809v58.83396c0,5.26344-1.65942,9.6621-4.9748,13.19368-1.65942,1.73071-3.62358,3.10149-5.89478,4.11002s-4.92075,1.51452-7.94864,1.51452c-3.53388,0-6.47207-.77393-8.81457-2.32525-2.34365-1.55017-4.19856-3.08309-5.56934-4.59646l8.65242-6.92171c.79233,.79348,1.71117,1.45932,2.75764,2.00096,1.04418,.54049,2.14471,.81073,3.29813,.81073,.64859,0,1.40642-.12535,2.2712-.37834,.86478-.25184,1.69392-.73829,2.4874-1.46047,.79233-.64859,1.44207-1.56742,1.94691-2.75764,.50369-1.18908,.75668-2.75764,.75668-4.70455v-57.31944h11.03173Z" fill="#b19d66"/>
      <path d="M104.36789,74.69809v59.69874c0,2.52535-.45079,4.8506-1.35122,6.97576-.90273,2.12746-2.18266,4.02032-3.83977,5.67743-1.65942,1.65942-3.56953,2.95774-5.73148,3.89382-2.16311,.93608-4.47226,1.40642-6.92171,1.40642-2.4529,0-4.7425-.47034-6.86766-1.40642-2.12746-.93608-4.02032-2.2344-5.67858-3.89382-1.65942-1.65712-2.95659-3.54998-3.89267-5.67743-.93838-2.12516-1.40642-4.45041-1.40642-6.97576v-59.69874h11.03173v58.61776c0,2.74039,.64859,4.7586,1.94691,6.05578,1.29717,1.29832,2.91979,1.94691,4.8667,1.94691,1.94576,0,3.56838-.64859,4.8667-1.94691,1.29717-1.29717,1.94576-3.31538,1.94576-6.05578v-58.61776h11.03173Z" fill="#b19d66"/>
      <path d="M156.92872,96.8685h-11.03173v-2.4874c0-2.5219-.59454-4.70455-1.78361-6.54222-1.19023-1.83881-3.19119-2.75764-6.00288-2.75764-1.51337,0-2.74039,.28864-3.67648,.86478-.93838,.57729-1.69507,1.29717-2.2712,2.16311-.57844,.93723-.97403,2.00096-1.19023,3.19004-.2162,1.19023-.32429,2.43335-.32429,3.73167,0,1.51337,.05405,2.77604,.16215,3.78457,.1081,1.01083,.37834,1.91126,.81188,2.7036,.43239,.79463,1.06258,1.47887,1.89171,2.05501,.82798,.57844,1.96416,1.15458,3.40738,1.73071l8.43508,3.35218c2.4506,.93838,4.43431,2.03891,5.94883,3.29928,1.51337,1.26152,2.7036,2.72199,3.56838,4.38026,.79233,1.72956,1.33397,3.69488,1.62262,5.89363,.28749,2.19991,.43239,4.70455,.43239,7.51625,0,3.24523-.32429,6.25587-.97288,9.03077-.64974,2.77604-1.69507,5.13695-3.13714,7.08386-1.51337,2.01936-3.49708,3.60633-5.94768,4.7586-2.45175,1.15228-5.44514,1.73071-8.97672,1.73071-2.66795,0-5.15535-.47034-7.4622-1.40642-2.308-.93608-4.29056-2.2344-5.94768-3.89382-1.65942-1.65712-2.97499-3.58563-3.94787-5.78553-.97403-2.19876-1.46047-4.59646-1.46047-7.19195v-4.11002h11.03173v3.46143c0,2.01936,.59454,3.83862,1.78476,5.46124,1.18908,1.62262,3.19004,2.43335,6.00173,2.43335,1.87446,0,3.33378-.27024,4.38026-.81073,1.04418-.54164,1.85491-1.31557,2.43335-2.32525,.57614-1.00968,.91883-2.21716,1.02693-3.62358,.1081-1.40527,.16215-2.97384,.16215-4.70455,0-2.01706-.07245-3.67648-.2162-4.9748-.1449-1.29717-.43239-2.34135-.86478-3.13599-.50484-.79233-1.17298-1.44207-2.00096-1.94691-.82913-.50369-1.92966-1.04418-3.29813-1.62262l-7.89459-3.24408c-4.7586-1.94691-7.94979-4.52401-9.57126-7.73244-1.62262-3.20728-2.4345-7.2276-2.4345-12.05866,0-2.88299,.39559-5.62454,1.19023-8.22003,.79233-2.5955,1.98256-4.82875,3.56838-6.70436,1.51452-1.87446,3.44303-3.37058,5.78668-4.48836,2.3425-1.11778,5.13695-1.67667,8.38103-1.67667,2.73924,0,5.24619,.50484,7.5174,1.51452s4.23421,2.34365,5.89363,4.00077c3.31538,3.46143,4.9748,7.42655,4.9748,11.89651v5.40719Z" fill="#b19d66"/>
      <path d="M178.88178,151.70053V85.08123h-12.76129v-10.38314h36.55431v10.38314h-12.76129v66.6193h-11.03173Z" fill="#b19d66"/>
    </g>
    <g>
      <path d="M332.01152,151.70053V74.69809h16.33082c6.34327,0,11.15592,1.73071,14.43796,5.19099,3.27973,3.46143,4.92075,8.36493,4.92075,14.70935v36.01382c0,7.21035-1.74911,12.52785-5.24504,15.95133-3.49823,3.42578-8.52708,5.13695-15.08654,5.13695h-15.35794Zm11.03173-66.6193v56.23731h5.0829c3.09919,0,5.29909-.77393,6.59742-2.32525,1.29717-1.54902,1.94576-3.98237,1.94576-7.30005v-37.0948c0-3.02904-.61294-5.37039-1.83766-7.02981-1.22703-1.65827-3.46143-2.4874-6.70551-2.4874h-5.0829Z" fill="#b19d66"/>
      <path d="M384.57121,151.70053V74.69809h17.73724c12.97749,0,19.46681,7.5358,19.46681,22.60394,0,4.54126-.70379,8.39943-2.10906,11.57107-1.40642,3.17394-3.87657,5.73263-7.40815,7.67954l11.89651,35.14789h-11.68031l-10.27389-32.87668h-6.59742v32.87668h-11.03173Zm11.03173-66.6193v24.00921h6.27197c1.94691,0,3.49708-.27139,4.65051-.81188s2.05501-1.31442,2.7036-2.32525c.57729-1.00853,.97403-2.2528,1.19023-3.73052s.32429-3.19119,.32429-5.1381c0-1.94576-.1081-3.65808-.32429-5.13695-.2162-1.47657-.64859-2.75764-1.29832-3.83862-1.36962-2.01821-3.96512-3.02789-7.78649-3.02789h-5.73148Z" fill="#b19d66"/>
      <path d="M437.45634,151.70053V74.69809h11.03173v77.00244h-11.03173Z" fill="#b19d66"/>
      <path d="M465.25012,151.70053V74.69809h10.59819l16.65511,46.39696h.2162v-46.39696h11.03173v77.00244h-10.38199l-16.87131-46.28771h-.2162v46.28771h-11.03173Z" fill="#b19d66"/>
      <path d="M520.18911,151.70053V74.69809h11.03173v35.14904h.2162l16.11462-35.14904h11.03058l-15.0325,30.82283,17.84419,46.17961h-11.67916l-12.54625-34.17501-5.94768,11.13982v23.03518h-11.03173Z" fill="#b19d66"/>
    </g>
  </g>
  <g>
    <path d="M152.33727,227.16315c-1.50647,.86708-3.11184,.96138-5.52679,.31164l-5.19789-1.39837,7.84169-29.14386,5.23929,1.40987c2.3747,.63939,3.68568,1.47427,4.50101,3.01064,.87513,1.64102,.83603,3.25443,.02185,6.28347-.55084,2.04696-1.28107,3.78112-3.15094,4.85865-.72794,.41859-1.49267,.65204-2.15046,.64974,.73369,.37374,1.27877,.95908,1.69737,1.68587,1.15573,2.06766,.77623,4.29171,.2139,6.37892-.96828,3.60288-1.91931,5.01505-3.48903,5.95343Zm-1.66747-13.70542l-2.86459-.77163-3.19464,11.87121,2.86574,.77048c2.78294,.74863,4.67926-.1012,5.93503-4.7678,1.14538-4.25721,.04255-6.35362-2.74154-7.10226Zm3.48098-12.93494l-2.86459-.77048-2.90829,10.80518,2.86459,.77163c2.61965,.70494,4.50101-.41284,5.54749-4.30206,1.14538-4.25606-.01955-5.79933-2.6392-6.50427Z"/>
    <path d="M179.67451,235.28889l.1173-8.42933-6.88146-1.47657-3.30963,7.74509-2.65185-.56924,12.92344-28.10083,2.27925,.48989,.13455,30.90217-2.6116-.56119Zm.33234-26.20567l-6.12708,14.20911,5.92813,1.27187,.19895-15.48099Z"/>
    <path d="M206.93471,240.14639l-2.16081-14.04467-3.85012-.61984-2.14931,13.35008-2.469-.39789,4.7977-29.7959,5.85798,.94298c3.59943,.57959,6.23632,2.3356,5.1174,9.28261-.74058,4.60336-2.31145,6.62617-4.9288,7.14826l2.42185,14.5587-2.6369-.42434Zm-.2461-28.33313l-3.47408-.55889-1.93311,12.01036,3.47293,.55889c2.97154,.47839,4.23536-1.50762,4.8552-5.35774s.04945-6.17422-2.92094-6.65262Z"/>
    <path d="M254.58284,244.18511c-1.07868,.81418-2.4713,1.26497-4.24686,1.13618-1.94576-.14145-3.41773-.92803-4.35381-2.10101-1.75486-2.16771-1.79396-4.55046-1.12468-13.76752,.67044-9.21706,1.05338-11.56992,3.10379-13.46048,1.09478-1.02578,2.66565-1.59157,4.61026-1.45012,1.90321,.138,3.25558,.83143,4.19626,1.91931,1.21553,1.40642,1.65942,3.47868,1.53637,5.76483l-2.4943-.18055c.1104-1.52257-.0782-3.02329-.89468-4.06057-.54624-.67734-1.32247-1.11663-2.5058-1.20288-1.22588-.08855-2.10216,.27254-2.74384,.90618-1.33282,1.39032-1.67092,3.10839-2.3126,11.94481-.64284,8.83642-.55659,10.58554,.56119,12.1541,.54279,.71989,1.35812,1.20403,2.584,1.29372,1.18333,.0851,2.01476-.2369,2.653-.82798,.95908-.90733,1.36157-2.3655,1.47197-3.88807l2.49545,.1817c-.2185,2.4069-1.00278,4.43201-2.5357,5.63834Z"/>
    <path d="M282.93552,246.39191l-1.46737-8.30283-7.03671-.1587-1.79626,8.22923-2.7128-.06095,7.41735-30.02819,2.33215,.0529,5.93388,30.32834-2.67025-.0598Zm-4.59416-25.80318l-3.35103,15.10724,6.06153,.1357-2.7105-15.24294Z"/>
    <path d="M303.20271,218.32443l.60489,27.93408-2.5012,.05405-.60374-27.93408-5.0438,.10925-.04945-2.2459,12.58879-.27254,.04945,2.2459-5.04495,.10925Z"/>
    <path d="M323.73899,245.44088l-2.05961-30.11559,10.49009-.71759,.15295,2.24245-7.99464,.54624,.79923,11.67456,6.89411-.47149,.1541,2.2413-6.89526,.47149,.80153,11.71711,7.99349-.54739,.1541,2.24245-10.49009,.71644Z"/>
    <path d="M360.86944,241.9576l-5.94193-12.91194-3.87312,.46344,1.60537,13.42943-2.48395,.29669-3.58218-29.97529,5.89363-.70379c3.62128-.43354,6.63882,.53014,7.47485,7.51855,.55314,4.63096-.40134,7.00796-2.77489,8.23153l6.33407,13.33398-2.65185,.31739Zm-8.03144-27.18085l-3.49363,.41744,1.44322,12.08281,3.49478-.41744c2.98879-.35649,3.65923-2.61505,3.19579-6.48817s-1.65022-5.95113-4.64016-5.59464Z"/>
    <path d="M379.21157,239.27126l-4.9127-29.78325,2.469-.40709,4.9127,29.78325-2.469,.40709Z"/>
    <path d="M408.95687,233.60302l-13.13043-21.26882,4.87705,23.01678-2.44715,.51864-6.25587-29.52795,2.44715-.51864,13.12928,21.26882-4.91845-23.00758,2.44715-.51864,6.25587,29.5268-2.4046,.51059Z"/>
    <path d="M433.77796,227.86234c-1.88366,.50714-3.53273,.24839-4.8023-.55084-2.3701-1.46967-3.19119-3.70637-5.59234-12.63019-2.40115-8.92267-2.81399-11.26977-1.50072-13.73072,.69689-1.32822,1.99406-2.3793,3.87657-2.88644s3.39818-.25644,4.64591,.46229c1.56972,.93838,2.7013,2.6967,3.29583,4.90695l-2.41495,.64974c-.62789-2.3333-1.99636-4.64246-4.94375-3.84897-1.18678,.31854-1.89516,.94873-2.2919,1.75716-.80153,1.75256-.55429,3.48558,1.74796,12.04026,2.3011,8.55468,2.95774,10.17844,4.53091,11.29162,.74863,.50024,1.67782,.68999,2.86459,.37029,2.08836-.56234,3.20269-2.61735,2.4644-5.36004l-1.92736-7.1632-3.64313,.97978-.55084-2.04581,6.05808-1.63067,2.4782,9.21016c1.16723,4.33886-1.06143,7.30925-4.29516,8.17863Z"/>
  </g>
  <g>
    <path d="M301.24347,33.06425l11.73724-11.99081-1.55822-1.52516-11.73034,11.98362c.55659,.46977,1.0712,.98496,1.55132,1.53234Z"/>
    <path d="M298.77562,35.58557c-.46689-.55946-.9907-1.06862-1.55879-1.52487-1.86986-1.50129-4.24054-2.4046-6.82511-2.4046-6.02818,0-10.915,4.88711-10.915,10.91529h21.83001c0-2.65817-.95218-5.09267-2.5311-6.98582Z" fill="#198451"/>
    <g>
      <polygon points="213.70523 48.87557 216.02761 51.24826 216.02761 48.87557 213.70523 48.87557"/>
      <polygon points="220.19426 48.87557 220.19426 55.50518 222.59167 57.95435 222.59167 48.87557 220.19426 48.87557"/>
      <polygon points="226.75833 48.87557 226.75833 62.21127 229.15603 64.66044 229.15603 48.87557 226.75833 48.87557"/>
      <polygon points="233.32239 48.87557 233.32239 68.91736 235.72009 71.36681 235.72009 48.87557 233.32239 48.87557"/>
      <polygon points="239.88761 48.87557 239.88761 75.6246 242.28502 78.07405 242.28502 48.87557 239.88761 48.87557"/>
      <polygon points="246.49106 162.52058 246.49106 166.28848 248.84909 166.28848 248.84909 162.22819 246.49106 162.52058"/>
      <polygon points="248.84909 48.87557 246.45168 48.87557 246.45168 82.33069 248.84909 84.78014 248.84909 48.87557"/>
      <polygon points="253.01574 161.71157 253.01574 166.28848 255.41316 166.28848 255.41316 161.4143 253.01574 161.71157"/>
      <polygon points="255.41316 91.48623 255.41316 48.87557 253.01574 48.87557 253.01574 89.03707 255.41316 91.48623"/>
      <polygon points="261.97751 98.19232 261.97751 48.87557 259.57981 48.87557 259.57981 95.74316 261.97751 98.19232"/>
      <polygon points="259.57981 160.89767 259.57981 166.28848 261.97751 166.28848 261.97751 160.6004 259.57981 160.89767"/>
      <polygon points="272.70909 160.6004 272.70909 166.28848 275.10622 166.28848 275.10622 160.89767 272.70909 160.6004"/>
      <polygon points="275.10622 95.74316 275.10622 48.87557 272.70909 48.87557 272.70909 98.19232 275.10622 95.74316"/>
      <polygon points="279.27316 161.4143 279.27316 166.28848 281.67086 166.28848 281.67086 161.71157 279.27316 161.4143"/>
      <polygon points="281.67086 89.03707 281.67086 48.87557 279.27316 48.87557 279.27316 91.48623 281.67086 89.03707"/>
      <polygon points="285.83838 48.87557 285.83838 84.77899 288.2355 82.32983 288.2355 48.87557 285.83838 48.87557"/>
      <polygon points="288.19526 162.52058 285.83838 162.22848 285.83838 166.28848 288.19526 166.28848 288.19526 162.52058"/>
      <polygon points="292.40245 48.87557 292.40245 78.0729 294.79957 75.62345 294.79957 48.87557 292.40245 48.87557"/>
      <polygon points="298.96651 48.87557 298.96651 71.36681 301.36364 68.91736 301.36364 48.87557 298.96651 48.87557"/>
      <polygon points="305.53058 48.87557 305.53058 64.66044 307.92771 62.21127 307.92771 48.87557 305.53058 48.87557"/>
      <polygon points="312.0958 48.87557 312.0958 57.9532 314.49292 55.50403 314.49292 48.87557 312.0958 48.87557"/>
      <polygon points="318.65986 48.87557 318.65986 51.24711 320.98109 48.87557 318.65986 48.87557"/>
      <polygon points="266.14503 126.82128 266.14503 166.28848 268.54215 166.28848 268.54215 126.82128 267.3433 126.17556 266.14503 126.82128"/>
      <polygon points="268.54215 102.91383 268.54215 48.87557 266.14503 48.87557 266.14503 102.91412 267.3433 103.55955 268.54215 102.91383"/>
    </g>
    <polygon points="268.54215 112.27666 267.3433 112.92237 266.14503 112.27694 239.95201 98.16846 239.95201 131.56694 266.14503 117.45845 267.3433 116.81303 268.54215 117.45874 294.7346 131.56694 294.7346 98.16846 268.54215 112.27666"/>
  </g>
</svg>